<svg width="64" height="64" viewBox="0 0 64 64" fill="none" xmlns="http://www.w3.org/2000/svg">
<circle cx="32.6367" cy="15.4541" r="10.8182" stroke="white" stroke-width="6.36364"/>
<mask id="path-2-inside-1_181_114" fill="white">
<path d="M5.27246 55.3333C5.27246 42.4467 15.7192 32 28.6058 32H37.9391C50.8258 32 61.2725 42.4467 61.2725 55.3333V55.3333C61.2725 57.9107 59.1831 60 56.6058 60H9.93913C7.3618 60 5.27246 57.9107 5.27246 55.3333V55.3333Z"/>
</mask>
<path d="M5.27246 55.3333C5.27246 42.4467 15.7192 32 28.6058 32H37.9391C50.8258 32 61.2725 42.4467 61.2725 55.3333V55.3333C61.2725 57.9107 59.1831 60 56.6058 60H9.93913C7.3618 60 5.27246 57.9107 5.27246 55.3333V55.3333Z" stroke="white" stroke-width="12.7273" mask="url(#path-2-inside-1_181_114)"/>
</svg>
