<svg width="27" height="27" viewBox="0 0 27 27" fill="none" xmlns="http://www.w3.org/2000/svg">
<circle cx="13.25" cy="7.5" r="4.25" stroke="white" stroke-width="2.5"/>
<mask id="path-2-inside-1_185_113" fill="white">
<path d="M2.5 23.1667C2.5 18.1041 6.60406 14 11.6667 14H15.3333C20.3959 14 24.5 18.1041 24.5 23.1667V23.1667C24.5 24.1792 23.6792 25 22.6667 25H4.33333C3.32081 25 2.5 24.1792 2.5 23.1667V23.1667Z"/>
</mask>
<path d="M2.5 23.1667C2.5 18.1041 6.60406 14 11.6667 14H15.3333C20.3959 14 24.5 18.1041 24.5 23.1667V23.1667C24.5 24.1792 23.6792 25 22.6667 25H4.33333C3.32081 25 2.5 24.1792 2.5 23.1667V23.1667Z" stroke="white" stroke-width="5" mask="url(#path-2-inside-1_185_113)"/>
</svg>
