<svg width="64" height="64" viewBox="0 0 64 64" fill="none" xmlns="http://www.w3.org/2000/svg">
<path d="M4 43.7578V35.2509C4 34.9516 4.24263 34.709 4.54194 34.709H10.2132C10.646 34.709 10.9042 35.1914 10.6641 35.5515L4.99285 44.0584C4.69543 44.5046 4 44.294 4 43.7578Z" fill="white" stroke="white" stroke-width="1.80645"/>
<path d="M52.7744 56.728V46.0898C52.7744 45.7905 52.5318 45.5479 52.2325 45.5479H43.114C42.651 45.5479 42.4012 46.0909 42.7025 46.4425L51.821 57.0807C52.1484 57.4627 52.7744 57.2312 52.7744 56.728Z" fill="white" stroke="white" stroke-width="1.80645"/>
<mask id="path-3-inside-1_181_98" fill="white">
<path d="M30.3223 13.0322C32.3176 13.0323 33.9355 14.6502 33.9355 16.6455V32.6455C33.9353 34.6407 32.3175 36.2578 30.3223 36.2578H4C2.00477 36.2578 0.386923 34.6407 0.386719 32.6455V16.6455C0.386719 14.6502 2.00465 13.0322 4 13.0322H30.3223Z"/>
</mask>
<path d="M30.3223 13.0322L30.3223 8.5161H30.3223V13.0322ZM33.9355 32.6455L38.4517 32.646V32.6455H33.9355ZM30.3223 36.2578V40.7739H30.3223L30.3223 36.2578ZM0.386719 32.6455H-4.12941V32.646L0.386719 32.6455ZM30.3223 13.0322L30.3222 17.5484C29.8235 17.5483 29.4194 17.1444 29.4194 16.6455H33.9355H38.4517C38.4517 12.1559 34.8117 8.51617 30.3223 8.5161L30.3223 13.0322ZM33.9355 16.6455H29.4194V32.6455H33.9355H38.4517V16.6455H33.9355ZM33.9355 32.6455L29.4194 32.6451C29.4195 32.1452 29.8245 31.7417 30.3222 31.7417L30.3223 36.2578L30.3223 40.7739C34.8105 40.7739 38.4512 37.1362 38.4517 32.646L33.9355 32.6455ZM30.3223 36.2578V31.7417H4V36.2578V40.7739H30.3223V36.2578ZM4 36.2578V31.7417C4.49783 31.7417 4.9028 32.1453 4.90285 32.645L0.386719 32.6455L-4.12941 32.646C-4.12895 37.1361 -0.488285 40.7739 4 40.7739V36.2578ZM0.386719 32.6455H4.90285V16.6455H0.386719H-4.12941V32.6455H0.386719ZM0.386719 16.6455H4.90285C4.90285 17.1443 4.49884 17.5484 4 17.5484V13.0322V8.5161C-0.489541 8.5161 -4.12941 12.156 -4.12941 16.6455H0.386719ZM4 13.0322V17.5484H30.3223V13.0322V8.5161H4V13.0322Z" fill="white" mask="url(#path-3-inside-1_181_98)"/>
<rect x="6.70996" y="19.3545" width="9.03226" height="3.6129" rx="0.903226" fill="white"/>
<rect x="6.70996" y="24.7734" width="9.03226" height="3.6129" rx="0.903226" fill="white"/>
<mask id="path-7-inside-2_181_98" fill="white">
<path d="M52.7744 20.7734C54.7698 20.7734 56.3877 22.3914 56.3877 24.3867V45.5469C56.3877 47.5422 54.7698 49.1602 52.7744 49.1602H16.9033C14.908 49.1601 13.291 47.5422 13.291 45.5469V24.3867C13.291 22.3914 14.908 20.7735 16.9033 20.7734H52.7744Z"/>
</mask>
<path d="M52.7744 20.7734C54.7698 20.7734 56.3877 22.3914 56.3877 24.3867V45.5469C56.3877 47.5422 54.7698 49.1602 52.7744 49.1602H16.9033C14.908 49.1601 13.291 47.5422 13.291 45.5469V24.3867C13.291 22.3914 14.908 20.7735 16.9033 20.7734H52.7744Z" fill="black"/>
<path d="M52.7744 20.7734V25.2896C52.2756 25.2896 51.8716 24.8856 51.8716 24.3867H56.3877H60.9038C60.9038 19.8972 57.264 16.2573 52.7744 16.2573V20.7734ZM56.3877 24.3867H51.8716V45.5469H56.3877H60.9038V24.3867H56.3877ZM56.3877 45.5469H51.8716C51.8716 45.048 52.2756 44.644 52.7744 44.644L52.7744 49.1602L52.7744 53.6763C57.2639 53.6763 60.9038 50.0364 60.9038 45.5469H56.3877ZM52.7744 49.1602V44.644H16.9033V49.1602V53.6763H52.7744V49.1602ZM16.9033 49.1602L16.9035 44.644C17.4037 44.644 17.8071 45.0494 17.8071 45.5469H13.291H8.77489C8.77489 50.0349 12.4124 53.6761 16.9032 53.6763L16.9033 49.1602ZM13.291 45.5469H17.8071V24.3867H13.291H8.77489V45.5469H13.291ZM13.291 24.3867H17.8071C17.8071 24.8842 17.4037 25.2895 16.9035 25.2896L16.9033 20.7734L16.9031 16.2573C12.4124 16.2575 8.77489 19.8986 8.77489 24.3867H13.291ZM16.9033 20.7734V25.2896H52.7744V20.7734V16.2573H16.9033V20.7734Z" fill="white" mask="url(#path-7-inside-2_181_98)"/>
<rect x="31.0967" y="28.3867" width="16.2581" height="5.41935" rx="1.80645" fill="white"/>
<rect x="36.5166" y="35.6123" width="10.8387" height="5.41935" rx="1.80645" fill="white"/>
</svg>
