<svg width="37" height="31" viewBox="0 0 37 31" fill="none" xmlns="http://www.w3.org/2000/svg">
<path d="M4 21.0092V16.3C4 16.1343 4.13431 16 4.3 16H7.43945C7.67905 16 7.82197 16.267 7.68906 16.4664L4.54962 21.1756C4.38497 21.4225 4 21.306 4 21.0092Z" fill="white" stroke="white"/>
<path d="M31 28.189V22.3C31 22.1343 30.8657 22 30.7 22H25.6523C25.396 22 25.2577 22.3006 25.4245 22.4952L30.4722 28.3843C30.6535 28.5957 31 28.4675 31 28.189Z" fill="white" stroke="white"/>
<mask id="path-3-inside-1_185_95" fill="white">
<path d="M18.5713 4C19.6759 4 20.5713 4.89543 20.5713 6V14.8574C20.5711 15.9619 19.6758 16.8574 18.5713 16.8574H4C2.89552 16.8574 2.00015 15.9619 2 14.8574V6C2 4.89543 2.89543 4 4 4H18.5713Z"/>
</mask>
<path d="M20.5713 6H23.0713H20.5713ZM20.5713 14.8574L23.0713 14.8578V14.8574H20.5713ZM4 16.8574L4 19.3574H4V16.8574ZM2 14.8574H-0.5V14.8578L2 14.8574ZM18.5713 4V6.5C18.2951 6.5 18.0713 6.27614 18.0713 6H20.5713H23.0713C23.0713 3.51472 21.0566 1.5 18.5713 1.5V4ZM20.5713 6H18.0713V14.8574H20.5713H23.0713V6H20.5713ZM20.5713 14.8574L18.0713 14.8571C18.0713 14.5814 18.2947 14.3574 18.5713 14.3574V16.8574V19.3574C21.0568 19.3574 23.0709 17.3423 23.0713 14.8578L20.5713 14.8574ZM18.5713 16.8574V14.3574H4V16.8574V19.3574H18.5713V16.8574ZM4 16.8574L4 14.3574C4.27657 14.3574 4.49996 14.5814 4.5 14.8571L2 14.8574L-0.5 14.8578C-0.49966 17.3423 1.51447 19.3574 4 19.3574L4 16.8574ZM2 14.8574H4.5V6H2H-0.5V14.8574H2ZM2 6H4.5C4.5 6.27614 4.27614 6.5 4 6.5V4V1.5C1.51472 1.5 -0.5 3.51472 -0.5 6H2ZM4 4V6.5H18.5713V4V1.5H4V4Z" fill="white" mask="url(#path-3-inside-1_185_95)"/>
<rect x="5.5" y="7.5" width="5" height="2" rx="0.5" fill="#D9D9D9"/>
<rect x="5.5" y="10.5" width="5" height="2" rx="0.5" fill="#D9D9D9"/>
<mask id="path-7-inside-2_185_95" fill="white">
<path d="M31 8.28613C32.1046 8.28614 33 9.18156 33 10.2861V22C32.9999 23.1044 32.1045 24 31 24H11.1426C10.0382 23.9998 9.14272 23.1043 9.14258 22V10.2861C9.14258 9.18166 10.0381 8.28629 11.1426 8.28613H31Z"/>
</mask>
<path d="M31 8.28613C32.1046 8.28614 33 9.18156 33 10.2861V22C32.9999 23.1044 32.1045 24 31 24H11.1426C10.0382 23.9998 9.14272 23.1043 9.14258 22V10.2861C9.14258 9.18166 10.0381 8.28629 11.1426 8.28613H31Z" fill="black"/>
<path d="M31 8.28613L31 5.78613H31V8.28613ZM33 22L35.5 22.0003V22H33ZM31 24V26.5H31L31 24ZM11.1426 24L11.1422 26.5H11.1426V24ZM9.14258 22H6.64258V22.0003L9.14258 22ZM11.1426 8.28613V5.78613H11.1422L11.1426 8.28613ZM31 8.28613L31 10.7861C30.7239 10.7861 30.5 10.5623 30.5 10.2861H33H35.5C35.5 7.80085 33.4853 5.78614 31 5.78613L31 8.28613ZM33 10.2861H30.5V22H33H35.5V10.2861H33ZM33 22L30.5 21.9997C30.5 21.724 30.7234 21.5 31 21.5L31 24L31 26.5C33.4855 26.5 35.4997 24.4849 35.5 22.0003L33 22ZM31 24V21.5H11.1426V24V26.5H31V24ZM11.1426 24L11.1429 21.5C11.419 21.5 11.6425 21.7235 11.6426 21.9997L9.14258 22L6.64258 22.0003C6.64291 24.4852 8.65746 26.4996 11.1422 26.5L11.1426 24ZM9.14258 22H11.6426V10.2861H9.14258H6.64258V22H9.14258ZM9.14258 10.2861H11.6426C11.6426 10.5627 11.4186 10.7861 11.1429 10.7861L11.1426 8.28613L11.1422 5.78613C8.6577 5.78648 6.64258 7.8006 6.64258 10.2861H9.14258ZM11.1426 8.28613V10.7861H31V8.28613V5.78613H11.1426V8.28613Z" fill="white" mask="url(#path-7-inside-2_185_95)"/>
<rect x="19" y="12.5" width="9" height="3" rx="1" fill="#D9D9D9"/>
<rect x="22" y="16.5" width="6" height="3" rx="1" fill="#D9D9D9"/>
</svg>
