<svg width="33" height="27" viewBox="0 0 33 27" fill="none" xmlns="http://www.w3.org/2000/svg">
<path d="M2 19.0092V14.3C2 14.1343 2.13431 14 2.3 14H5.43945C5.67905 14 5.82197 14.267 5.68906 14.4664L2.54962 19.1756C2.38497 19.4225 2 19.306 2 19.0092Z" fill="white" stroke="white"/>
<path d="M29 26.189V20.3C29 20.1343 28.8657 20 28.7 20H23.6523C23.396 20 23.2577 20.3006 23.4245 20.4952L28.4722 26.3843C28.6535 26.5957 29 26.4675 29 26.189Z" fill="white" stroke="white"/>
<mask id="path-3-inside-1_171_18" fill="white">
<path d="M16.5713 2C17.6759 2 18.5713 2.89543 18.5713 4V12.8574C18.5711 13.9619 17.6758 14.8574 16.5713 14.8574H2C0.895525 14.8574 0.000151003 13.9619 0 12.8574V4C0 2.89543 0.895431 2 2 2H16.5713Z"/>
</mask>
<path d="M18.5713 4H21.0713H18.5713ZM18.5713 12.8574L21.0713 12.8578V12.8574H18.5713ZM2 14.8574L2 17.3574H2V14.8574ZM0 12.8574H-2.5V12.8578L0 12.8574ZM16.5713 2V4.5C16.2951 4.5 16.0713 4.27614 16.0713 4H18.5713H21.0713C21.0713 1.51472 19.0566 -0.5 16.5713 -0.5V2ZM18.5713 4H16.0713V12.8574H18.5713H21.0713V4H18.5713ZM18.5713 12.8574L16.0713 12.8571C16.0713 12.5814 16.2947 12.3574 16.5713 12.3574V14.8574V17.3574C19.0568 17.3574 21.0709 15.3423 21.0713 12.8578L18.5713 12.8574ZM16.5713 14.8574V12.3574H2V14.8574V17.3574H16.5713V14.8574ZM2 14.8574L2 12.3574C2.27657 12.3574 2.49996 12.5814 2.5 12.8571L0 12.8574L-2.5 12.8578C-2.49966 15.3423 -0.485526 17.3574 2 17.3574L2 14.8574ZM0 12.8574H2.5V4H0H-2.5V12.8574H0ZM0 4H2.5C2.5 4.27614 2.27614 4.5 2 4.5V2V-0.5C-0.485281 -0.5 -2.5 1.51472 -2.5 4H0ZM2 2V4.5H16.5713V2V-0.5H2V2Z" fill="white" mask="url(#path-3-inside-1_171_18)"/>
<rect x="3.5" y="5.5" width="5" height="2" rx="0.5" fill="#D9D9D9"/>
<rect x="3.5" y="8.5" width="5" height="2" rx="0.5" fill="#D9D9D9"/>
<mask id="path-7-inside-2_171_18" fill="white">
<path d="M29 6.28613C30.1046 6.28614 31 7.18156 31 8.28613V20C30.9999 21.1044 30.1045 22 29 22H9.14258C8.03823 21.9998 7.14272 21.1043 7.14258 20V8.28613C7.14258 7.18166 8.03814 6.28629 9.14258 6.28613H29Z"/>
</mask>
<path d="M29 6.28613C30.1046 6.28614 31 7.18156 31 8.28613V20C30.9999 21.1044 30.1045 22 29 22H9.14258C8.03823 21.9998 7.14272 21.1043 7.14258 20V8.28613C7.14258 7.18166 8.03814 6.28629 9.14258 6.28613H29Z" fill="black"/>
<path d="M29 6.28613L29 3.78613H29V6.28613ZM31 20L33.5 20.0003V20H31ZM29 22V24.5H29L29 22ZM9.14258 22L9.14223 24.5H9.14258V22ZM7.14258 20H4.64258V20.0003L7.14258 20ZM9.14258 6.28613V3.78613H9.14223L9.14258 6.28613ZM29 6.28613L29 8.78613C28.7239 8.78613 28.5 8.56228 28.5 8.28613H31H33.5C33.5 5.80085 31.4853 3.78614 29 3.78613L29 6.28613ZM31 8.28613H28.5V20H31H33.5V8.28613H31ZM31 20L28.5 19.9997C28.5 19.724 28.7234 19.5 29 19.5L29 22L29 24.5C31.4855 24.5 33.4997 22.4849 33.5 20.0003L31 20ZM29 22V19.5H9.14258V22V24.5H29V22ZM9.14258 22L9.14293 19.5C9.419 19.5 9.64254 19.7235 9.64258 19.9997L7.14258 20L4.64258 20.0003C4.64291 22.4852 6.65746 24.4996 9.14223 24.5L9.14258 22ZM7.14258 20H9.64258V8.28613H7.14258H4.64258V20H7.14258ZM7.14258 8.28613H9.64258C9.64258 8.56272 9.41858 8.78609 9.14293 8.78613L9.14258 6.28613L9.14223 3.78613C6.6577 3.78648 4.64258 5.8006 4.64258 8.28613H7.14258ZM9.14258 6.28613V8.78613H29V6.28613V3.78613H9.14258V6.28613Z" fill="white" mask="url(#path-7-inside-2_171_18)"/>
<rect x="17" y="10.5" width="9" height="3" rx="1" fill="#D9D9D9"/>
<rect x="20" y="14.5" width="6" height="3" rx="1" fill="#D9D9D9"/>
</svg>
